<?xml version="1.0" encoding="UTF-8" standalone="no"?>
<svg
   xmlns:dc="http://purl.org/dc/elements/1.1/"
   xmlns:cc="http://creativecommons.org/ns#"
   xmlns:rdf="http://www.w3.org/1999/02/22-rdf-syntax-ns#"
   xmlns:svg="http://www.w3.org/2000/svg"
   xmlns="http://www.w3.org/2000/svg"
   xmlns:sodipodi="http://sodipodi.sourceforge.net/DTD/sodipodi-0.dtd"
   xmlns:inkscape="http://www.inkscape.org/namespaces/inkscape"
   width="424.69138mm"
   height="365.17566mm"
   viewBox="0 0 424.69138 365.17566"
   version="1.1"
   id="svg1617"
   inkscape:version="1.0 (1.0+r73+1)"
   sodipodi:docname="py-car-y2.svg">
  <defs
     id="defs1611" />
  <sodipodi:namedview
     fit-margin-bottom="0"
     fit-margin-right="0"
     fit-margin-left="0"
     fit-margin-top="0"
     id="base"
     pagecolor="#ffffff"
     bordercolor="#666666"
     borderopacity="1.0"
     inkscape:pageopacity="0.0"
     inkscape:pageshadow="2"
     inkscape:zoom="0.36672196"
     inkscape:cx="163.97979"
     inkscape:cy="961.0277"
     inkscape:document-units="mm"
     inkscape:current-layer="svg1617"
     showgrid="false"
     inkscape:snap-global="false"
     inkscape:document-rotation="0"
     inkscape:window-width="1920"
     inkscape:window-height="1023"
     inkscape:window-x="0"
     inkscape:window-y="0"
     inkscape:window-maximized="1" />
  <metadata
     id="metadata1614">
    <rdf:RDF>
      <cc:Work
         rdf:about="">
        <dc:format>image/svg+xml</dc:format>
        <dc:type
           rdf:resource="http://purl.org/dc/dcmitype/StillImage" />
        <dc:title></dc:title>
      </cc:Work>
    </rdf:RDF>
  </metadata>
  <g
     transform="translate(131.85433,33.05)"
     inkscape:label="Layer 1"
     inkscape:groupmode="layer"
     id="layer1" />
  <path
     d="m 19.05,284.49296 m -19,0 a 19,19 0 0 1 19,-19 19,19 0 0 1 19.000004,19 19,19 0 0 1 -19.000004,19 19,19 0 0 1 -19,-19 m 19,0 m -15.25,0 a 15.25,15.25 0 0 1 15.25,-15.25 15.25,15.25 0 0 1 15.250004,15.25 15.25,15.25 0 0 1 -15.250004,15.25 15.25,15.25 0 0 1 -15.25,-15.25 m 15.25,0 m -3.175,0 a 3.175,3.175 0 0 1 3.175,-3.175 3.175,3.175 0 0 1 3.175,3.175 3.175,3.175 0 0 1 -3.175,3.175 3.175,3.175 0 0 1 -3.175,-3.175 m 3.175,0"
     id="wheel1"
     style="fill:none;stroke:#000000;stroke-width:0.1;stroke-miterlimit:4;stroke-dasharray:none"
     inkscape:connector-curvature="0"
     sodipodi:nodetypes="ccssscccccssscccc" />
  <path
     style="fill:none;stroke:#000000;stroke-width:0.1;stroke-miterlimit:4;stroke-dasharray:none"
     id="wheel2"
     d="m 405.64138,346.12565 m -19,0 a 19,19 0 0 1 19,-19 19,19 0 0 1 19,19 19,19 0 0 1 -19,19 19,19 0 0 1 -19,-19 m 19,0 m -15.25,0 a 15.25,15.25 0 0 1 15.25,-15.25 15.25,15.25 0 0 1 15.25,15.25 15.25,15.25 0 0 1 -15.25,15.25 15.25,15.25 0 0 1 -15.25,-15.25 m 15.25,0 m -3.175,0 a 3.175,3.175 0 0 1 3.175,-3.175 3.175,3.175 0 0 1 3.175,3.175 3.175,3.175 0 0 1 -3.175,3.175 3.175,3.175 0 0 1 -3.175,-3.175 m 3.175,0" />
  <path
     style="fill:none;stroke:#000000;stroke-width:0.1;stroke-miterlimit:4;stroke-dasharray:none"
     id="wheel3"
     d="m 405.64138,252.12565 m -19,0 a 19,19 0 0 1 19,-19 19,19 0 0 1 19,19 19,19 0 0 1 -19,19 19,19 0 0 1 -19,-19 m 19,0 m -15.25,0 a 15.25,15.25 0 0 1 15.25,-15.25 15.25,15.25 0 0 1 15.25,15.25 15.25,15.25 0 0 1 -15.25,15.25 15.25,15.25 0 0 1 -15.25,-15.25 m 15.25,0 m -3.175,0 a 3.175,3.175 0 0 1 3.175,-3.175 3.175,3.175 0 0 1 3.175,3.175 3.175,3.175 0 0 1 -3.175,3.175 3.175,3.175 0 0 1 -3.175,-3.175 m 3.175,0"
     inkscape:connector-curvature="0" />
  <path
     style="fill:none;stroke:#000000;stroke-width:0.1;stroke-miterlimit:4;stroke-dasharray:none"
     id="wheel4"
     d="m 19.05,190.49296 m -19,0 a 19,19 0 0 1 19,-19 19,19 0 0 1 19.000004,19 19,19 0 0 1 -19.000004,19 19,19 0 0 1 -19,-19 m 19,0 m -15.25,0 a 15.25,15.25 0 0 1 15.25,-15.25 15.25,15.25 0 0 1 15.250004,15.25 15.25,15.25 0 0 1 -15.250004,15.25 15.25,15.25 0 0 1 -15.25,-15.25 m 15.25,0 m -3.175,0 a 3.175,3.175 0 0 1 3.175,-3.175 3.175,3.175 0 0 1 3.175,3.175 3.175,3.175 0 0 1 -3.175,3.175 3.175,3.175 0 0 1 -3.175,-3.175 m 3.175,0"
     inkscape:connector-curvature="0" />
  <path
     d="m 102.85433,312.05 v -152 l 131,-160 h 127 v 312 z"
     id="border"
     style="fill:none;stroke:#000000;stroke-width:0.1;stroke-miterlimit:4;stroke-dasharray:none"
     inkscape:connector-curvature="0" />
  <script
     type="text/python"
     id="pyscript_main"># Script: main

from pyscript import svg

wheel_outer=38.0
wheel_inner=30.5
wheel_inter=6.35

x0, y0 = 0, 250

y_rail_h = 63.5
y_space = 200
z_space = y_rail_h + wheel_inner

margin=10

line_style = {
    'fill' : 'none',
    'stroke': &quot;#000000&quot;,
    'stroke-width' : '0.1',
    'stroke-miterlimit' : '4',
    'stroke-dasharray' : 'none'
}

Path = svg.PathObject

w1 = Path(style=line_style)
w1.move( x0, y0 )

w1.circle_center(r=wheel_outer/2)
w1.circle_center(r=wheel_inner/2)
w1.circle_center(r=wheel_inter/2)
w1.create(ink, ink.document.getroot(), elem_id=&quot;wheel1&quot;)

w1.translate(y_space, 0)
w1.create(ink, ink.document.getroot(), elem_id=&quot;wheel2&quot;)

w1.translate(0, -z_space)
w1.create(ink, ink.document.getroot(), elem_id=&quot;wheel3&quot;)

w1.translate(-y_space, 0)
w1.create(ink, ink.document.getroot(), elem_id=&quot;wheel4&quot;)

border = Path(style=line_style) 
border.move(x0 - wheel_outer/2 - margin, y0 + wheel_outer/2 + margin)

border.line(0, -z_space -wheel_outer -2*margin)
border.line(y_space - 50 - wheel_outer/2, -160)
border.line_to(x0 + y_space + wheel_outer/2 + margin, border.end_point()[1])
border.line_to(border.end_point()[0], y0 + wheel_outer/2 + margin)
border.close()

border.create(ink, ink.document.getroot(), elem_id=&quot;border&quot;)


rect = ink.select_first('#rect853')
rect.attrib['transform'] = 'rotate(30)'





</script>
  <rect
     style="opacity:1;fill:#00ff00;fill-opacity:1;stroke:#000000;stroke-width:0.3;stroke-linecap:square;stroke-linejoin:miter;stroke-miterlimit:4;stroke-dasharray:none;stroke-dashoffset:0;stroke-opacity:1;paint-order:stroke fill markers"
     id="rect853"
     width="43.764782"
     height="47.585514"
     x="42.707203"
     y="5.8793883"
     rx="5.210093"
     transform="rotate(30)" />
</svg>
